<svg xmlns="http://www.w3.org/2000/svg" xmlns:xlink="http://www.w3.org/1999/xlink" id="Layer_1" x="0px" y="0px" width="1080px" height="1080px" viewBox="0 0 1080 1080" style="enable-background:new 0 0 1080 1080;" xml:space="preserve"><style type="text/css">	.st0{fill:#FFFFFF;}</style><g>	<path class="st0" d="M936.8,164.4c-23.3-13.5-52.5-21.4-82.8-23.9c-4.4-17.5-18.3-34.4-41.6-47.9c-57.2-33-149.7-33-206.6,0  L95.4,392.8l1.5,371.1c-0.2,65.6,32.6,125.7,89.7,158.7c23.3,13.4,57.4,18.7,74.7,13.8c17.2,24.9,38.7,48.3,62,61.7  c57.1,33,103.6,6.5,103.8-59.1l1-356.5L937.5,284C994.4,251,994.1,197.4,936.8,164.4z M220.5,703l-0.3,116.5  c0,13.1-9.3,18.4-20.8,11.8s-20.7-22.6-20.6-35.7l0.3-116.5l0.7-240l408-240l100.9-58.6c11.4-6.6,29.9-6.6,41.3,0  c11.4,6.6,11.5,17.3,0.1,23.9L629.3,223L221.2,463v0L220.5,703z M854.6,236.2l-100.9,58.6L345.3,534.6l0.3,0.2l-0.3-0.2l-0.7,240  l-0.3,116.5c0,13.1-9.3,18.4-20.8,11.8c-11.4-6.6-20.7-22.6-20.6-35.7l0.3-116.5l0.7-240l408.3-239.9l100.9-58.6  c11.4-6.6,29.9-6.6,41.3,0C865.9,218.9,866,229.6,854.6,236.2z"></path>	<g>		<g>			<polygon class="st0" points="688,664.1 639.6,866.4 604.6,886.6 578.7,798.1 553.9,915.8 518.9,936.1 469.5,790.2 508.6,767.6     536.6,861.3 564.2,735.5 593.2,718.8 621.9,813.3 649.7,686.2    "></polygon>		</g>		<g>			<path class="st0" d="M795.7,705.5l40.2,47.5l-39.2,22.6l-34.6-45.8l-15.8,9.1l0.2,65.7L711,825.1l-0.5-174.1l68.4-39.5    c30.9-17.9,52-9.3,52.1,22.7C831.1,658.9,817.9,686.5,795.7,705.5z M774.1,689.6c12.3-7.1,20.1-18.6,20.1-31.5    c0-13.2-8.3-15.6-21.1-8.3l-27.1,15.6l0.1,40.3L774.1,689.6"></path>		</g>		<g>			<polygon class="st0" points="979.9,495.5 934.7,604.8 984.6,667.5 944.7,690.5 913.6,647.9 882.4,726.4 843.9,748.7 893,630.4     846.6,572.5 886.5,549.5 914.1,587.1 941.4,517.8    "></polygon>		</g>	</g>	<g>		<g>			<path class="st0" d="M545,629.7c18.5-5.6,28.8,1.1,28.9,20.7c0.1,26.1-17.7,52.2-47.7,69.5l-56.5,32.6l-0.4-147.4l52.1-30.1    c27.1-15.7,44-10.7,44.1,12.7C565.5,602.5,558.7,616.5,545,629.7z M522.4,693.6c12.6-7.3,20.3-17.4,20.3-29.2    c0-12-7.7-13-20.4-5.7l-22.7,13.1l0.1,35L522.4,693.6 M499.4,616.2l0.1,31.4l18.1-10.5c10.5-6,16.8-15,16.8-25.3    c0-10.3-6.5-12.1-16.9-6.1L499.4,616.2"></path>		</g>		<g>			<path class="st0" d="M667.7,578.3l34.1,40.2l-33.2,19.2l-29.3-38.8l-13.4,7.7l0.2,55.6L596,679.6l-0.4-147.4l57.9-33.4    c26.2-15.1,44-7.9,44.1,19.3C697.7,538.9,686.5,562.2,667.7,578.3z M649.5,564.8c10.4-6,17-15.7,17-26.7c0-11.2-7-13.2-17.8-7    l-22.9,13.2l0.1,34.1L649.5,564.8"></path>		</g>		<g>			<polygon class="st0" points="836,393.4 836.5,540.8 811.4,555.3 751.2,501.6 751.4,589.9 721.7,607 721.3,459.6 746.6,445     806.8,498.6 806.5,410.4    "></polygon>		</g>		<g>			<path class="st0" d="M911.4,349.9c41.8-24.1,68.4-12.9,68.6,34.2c0.1,48-27.1,89.5-68.2,113.2L866,523.8l-0.4-147.4L911.4,349.9z     M908.8,468.5c25.5-14.7,40.1-37.5,40-66.4c-0.1-28.8-14.8-34.7-40.3-20l-12.8,7.4l0.2,86.4L908.8,468.5"></path>		</g>	</g></g></svg>